/* XPM */
static const char * add_xpm[] = {
"32 32 47 1",
" 	c None",
".	c #C3F8BE",
"+	c #BEF7BA",
"@	c #BAF6B6",
"#	c #B6F6B2",
"$	c #B2F5AE",
"%	c #AEF5AB",
"&	c #A9F4A7",
"*	c #A5F3A3",
"=	c #A1F39F",
"-	c #9DF29C",
";	c #98F298",
">	c #ADF5AB",
",	c #94F194",
"'	c #9DF29B",
")	c #90F090",
"!	c #8CF08C",
"~	c #87EF89",
"{	c #9CF29B",
"]	c #8BF08C",
"^	c #83EE85",
"/	c #98F198",
"(	c #7FEE81",
"_	c #ADF4AA",
":	c #7BED7D",
"<	c #76ED79",
"[	c #72EC76",
"}	c #6EEB72",
"|	c #6AEB6E",
"1	c #65EA6A",
"2	c #61EA67",
"3	c #5DE963",
"4	c #58E85F",
"5	c #54E85B",
"6	c #50E757",
"7	c #4CE754",
"8	c #76ED7A",
"9	c #59E85F",
"0	c #47E650",
"a	c #43E54C",
"b	c #3FE548",
"c	c #ADF4AB",
"d	c #48E650",
"e	c #3BE445",
"f	c #50E758",
"g	c #37E441",
"h	c #32E33D",
"                                ",
"           .+@#$%&*             ",
"           +@#$%&*=             ",
"           @#$%&*=-             ",
"           #$%&*=-;             ",
"           $>&*=-;,             ",
"           %&*=';,)             ",
"           &*=';,)!             ",
"           *=';,)!~             ",
"           ={;,)]~^             ",
"           {/,)]~^(             ",
" .+@#$_&*={/,)]~^(:<[}|123456   ",
" +@#$_&*={;,)]~^(:<[}|1234567   ",
" @#$_&*={/,)]~^(:8[}|12395670   ",
" #$_&*={/,)]~^(:<[}|12395670a   ",
" $_&*={/,)]~^(:<[}|12395670ab   ",
" c&*={/,)]~^(:8[}|1239567dabe   ",
" &*={;,)]~^(:8[}|12395f7dabeg   ",
" *={/,)]~^(:<[}|12395f7dabegh   ",
"           <[}|1239             ",
"           [}|12395             ",
"           }|12395f             ",
"           |12395f7             ",
"           12395f7d             ",
"           2395f7da             ",
"           395f7dab             ",
"           95f7dabe             ",
"           567dabeg             ",
"           f7dabegh             ",
"                                ",
"                                ",
"                                "};
