/* XPM */
static const char * led_green_xpm[] = {
"28 28 443 2",
"  	c None",
". 	c #959696",
"+ 	c #717875",
"@ 	c #596660",
"# 	c #4B5E55",
"$ 	c #4C5B54",
"% 	c #596861",
"& 	c #717C77",
"* 	c #949997",
"= 	c #446355",
"- 	c #4C7160",
"; 	c #5C8572",
"> 	c #699480",
", 	c #6C9B85",
"' 	c #6C9783",
") 	c #6B9883",
"! 	c #628F7A",
"~ 	c #547F6B",
"{ 	c #4E7764",
"] 	c #3B5449",
"^ 	c #325F4A",
"/ 	c #5B9078",
"( 	c #9DC6B3",
"_ 	c #D3ECE1",
": 	c #E9FAF3",
"< 	c #EEFBF5",
"[ 	c #F0FDF7",
"} 	c #F0FDF8",
"| 	c #DDF2E9",
"1 	c #AFD4C3",
"2 	c #73A68F",
"3 	c #3A755A",
"4 	c #3C7159",
"5 	c #184F36",
"6 	c #3C7F60",
"7 	c #96C7AE",
"8 	c #C6E3D6",
"9 	c #D5ECE1",
"0 	c #D2EBDE",
"a 	c #CFEADC",
"b 	c #CFEADA",
"c 	c #D1ECDC",
"d 	c #D7EEE2",
"e 	c #DCEFE6",
"f 	c #DDF0E5",
"g 	c #D3EADF",
"h 	c #A8D3BD",
"i 	c #459671",
"j 	c #196A45",
"k 	c #1A6945",
"l 	c #29885C",
"m 	c #77BC9C",
"n 	c #AFDAC4",
"o 	c #B7E2C9",
"p 	c #BBE4C8",
"q 	c #B7E4C5",
"r 	c #B5E4C1",
"s 	c #BCE5C8",
"t 	c #BDE6C7",
"u 	c #BDE6C9",
"v 	c #C1E8CD",
"w 	c #C9EAD3",
"x 	c #CAE9D4",
"y 	c #C2E5D1",
"z 	c #8DCAAE",
"A 	c #329568",
"B 	c #1A754B",
"C 	c #1D7E51",
"D 	c #098845",
"E 	c #46B173",
"F 	c #8CD3A3",
"G 	c #A2DDB4",
"H 	c #A4DFB0",
"I 	c #A3E0AB",
"J 	c #A3E0AD",
"K 	c #A2E1AB",
"L 	c #A5E2AE",
"M 	c #A4E1AD",
"N 	c #A7E2B1",
"O 	c #ADE4B7",
"P 	c #B2E5BC",
"Q 	c #B8E5C3",
"R 	c #52B979",
"S 	c #0B904A",
"T 	c #1E8154",
"U 	c #348F65",
"V 	c #00923D",
"W 	c #17AA44",
"X 	c #52C56A",
"Y 	c #83D88F",
"Z 	c #85DA8D",
"` 	c #85DC8B",
" .	c #87DE8B",
"..	c #86DD8A",
"+.	c #86DF8A",
"@.	c #88DF8C",
"#.	c #8CDF8E",
"$.	c #8CDF92",
"%.	c #8DDE92",
"&.	c #92DF99",
"*.	c #98DF9E",
"=.	c #94DD9B",
"-.	c #5CC971",
";.	c #1AAB46",
">.	c #009337",
",.	c #349160",
"'.	c #71A68B",
").	c #069743",
"!.	c #01A62C",
"~.	c #1BB831",
"{.	c #4ACD50",
"].	c #6CD96F",
"^.	c #6FDA72",
"/.	c #6EDB70",
"(.	c #72DD74",
"_.	c #70DD73",
":.	c #6EDD71",
"<.	c #71DE73",
"[.	c #73DC75",
"}.	c #74DD76",
"|.	c #76DD78",
"1.	c #75DC77",
"2.	c #79DC7B",
"3.	c #7BDC7D",
"4.	c #79DA7E",
"5.	c #52CD58",
"6.	c #1CB92A",
"7.	c #00A91C",
"8.	c #069736",
"9.	c #70A789",
"0.	c #39A05D",
"a.	c #01AE21",
"b.	c #02B513",
"c.	c #14C11D",
"d.	c #3DD040",
"e.	c #5CD95F",
"f.	c #64DB66",
"g.	c #68DD6B",
"h.	c #67DC6A",
"i.	c #67DE6A",
"j.	c #69E06C",
"k.	c #65DE68",
"l.	c #66DD69",
"m.	c #69DC6B",
"n.	c #6CDD6F",
"o.	c #6EDD70",
"p.	c #66D968",
"q.	c #3FCE42",
"r.	c #14C118",
"s.	c #02B70A",
"t.	c #00AE1C",
"u.	c #38A15B",
"v.	c #019E22",
"w.	c #01B812",
"x.	c #0AC20E",
"y.	c #18CB1C",
"z.	c #33D237",
"A.	c #4FD852",
"B.	c #5DDC60",
"C.	c #64E167",
"D.	c #63E066",
"E.	c #5EE161",
"F.	c #5DE060",
"G.	c #5BE05E",
"H.	c #5FE062",
"I.	c #60DF63",
"J.	c #5BDE5E",
"K.	c #5DDE60",
"L.	c #62DF65",
"M.	c #5ADB5D",
"N.	c #34CD38",
"O.	c #06BF0B",
"P.	c #00BA0D",
"Q.	c #019E1B",
"R.	c #01B21A",
"S.	c #06C30A",
"T.	c #16CB1A",
"U.	c #29D02D",
"V.	c #3AD73E",
"W.	c #46DB49",
"X.	c #51DE54",
"Y.	c #55E058",
"Z.	c #57E25A",
"`.	c #56E359",
" +	c #53E256",
".+	c #57E45A",
"++	c #5AE35D",
"@+	c #54E157",
"#+	c #59E25C",
"$+	c #52DD55",
"%+	c #45DA49",
"&+	c #38D33B",
"*+	c #2ACD2E",
"=+	c #1DCA21",
"-+	c #10C114",
";+	c #779E7C",
">+	c #65966C",
",+	c #03C80D",
"'+	c #17CC1B",
")+	c #28D12C",
"!+	c #39D83D",
"~+	c #43DE47",
"{+	c #4AE34D",
"]+	c #53E456",
"^+	c #54E557",
"/+	c #54E757",
"(+	c #54E957",
"_+	c #57EA5A",
":+	c #59EA5C",
"<+	c #59E85C",
"[+	c #56E759",
"}+	c #59E65C",
"|+	c #51E254",
"1+	c #48DF4C",
"2+	c #44DD47",
"3+	c #3CD740",
"4+	c #31D235",
"5+	c #26CD2A",
"6+	c #0FD013",
"7+	c #669967",
"8+	c #5B965E",
"9+	c #0ED912",
"0+	c #2BD42F",
"a+	c #39DA3D",
"b+	c #45E049",
"c+	c #4FE452",
"d+	c #58EB5B",
"e+	c #5DEE60",
"f+	c #59F05C",
"g+	c #5BF25E",
"h+	c #61F264",
"i+	c #60F163",
"j+	c #5EEF61",
"k+	c #5FEE62",
"l+	c #5CEB5F",
"m+	c #57E85A",
"n+	c #55E658",
"o+	c #50E553",
"p+	c #47E04B",
"q+	c #3FD842",
"r+	c #37D63B",
"s+	c #25E229",
"t+	c #639A64",
"u+	c #5E975F",
"v+	c #1EDD22",
"w+	c #36DB3A",
"x+	c #45E249",
"y+	c #53E856",
"z+	c #59EC5C",
"A+	c #5DF060",
"B+	c #62F365",
"C+	c #62F765",
"D+	c #66F969",
"E+	c #68F96B",
"F+	c #63F666",
"G+	c #67F66A",
"H+	c #64F567",
"I+	c #5FF262",
"J+	c #5EED61",
"K+	c #5BEA5E",
"L+	c #4EDF51",
"M+	c #43DC46",
"N+	c #3AE73E",
"O+	c #689B69",
"P+	c #689769",
"Q+	c #2DDA31",
"R+	c #43E247",
"S+	c #4DE650",
"T+	c #57EE5A",
"U+	c #60F363",
"V+	c #63F466",
"W+	c #65F668",
"X+	c #69F86C",
"Y+	c #6AFB6D",
"Z+	c #6FFF72",
"`+	c #71FF74",
" @	c #6EFD71",
".@	c #70FD73",
"+@	c #6CFB6F",
"@@	c #6BF86E",
"#@	c #69F66C",
"$@	c #69F46C",
"%@	c #63F067",
"&@	c #5DEA60",
"*@	c #4DE450",
"=@	c #44E147",
"-@	c #6F9A70",
";@	c #759875",
">@	c #3BD03E",
",@	c #51EA54",
"'@	c #58ED5B",
")@	c #62F565",
"!@	c #6CF96F",
"~@	c #71FC74",
"{@	c #76FD79",
"]@	c #74FF78",
"^@	c #76FF7A",
"/@	c #79FF7C",
"(@	c #74FD77",
"_@	c #70FB73",
":@	c #6EF971",
"<@	c #6AF36D",
"[@	c #64EF67",
"}@	c #62ED65",
"|@	c #4DD650",
"1@	c #799A7A",
"2@	c #869D87",
"3@	c #42BF45",
"4@	c #5FF662",
"5@	c #73FC76",
"6@	c #80FF7D",
"7@	c #83FF81",
"8@	c #86FF81",
"9@	c #85FF83",
"0@	c #7FFF82",
"a@	c #7DFF80",
"b@	c #7AFD7D",
"c@	c #77FC7A",
"d@	c #72F975",
"e@	c #6EF571",
"f@	c #6CF36F",
"g@	c #6DFA70",
"h@	c #4FC452",
"i@	c #879E88",
"j@	c #9FA8A0",
"k@	c #5EA960",
"l@	c #64F167",
"m@	c #7BFF7E",
"n@	c #82FF7F",
"o@	c #88FF83",
"p@	c #8AFF84",
"q@	c #8CFF86",
"r@	c #91FF88",
"s@	c #87FF84",
"t@	c #7CFD7F",
"u@	c #78FB7B",
"v@	c #74F97A",
"w@	c #70F573",
"x@	c #67AE68",
"y@	c #749575",
"z@	c #5FD061",
"A@	c #73FA76",
"B@	c #93FE8B",
"C@	c #95FE8D",
"D@	c #96FE8F",
"E@	c #90FE8B",
"F@	c #89FF86",
"G@	c #84FF87",
"H@	c #83FF85",
"I@	c #69D46B",
"J@	c #789778",
"K@	c #8E978F",
"L@	c #60AB61",
"M@	c #79FC7C",
"N@	c #8BFF83",
"O@	c #94FF88",
"P@	c #99FE8F",
"Q@	c #9BFE91",
"R@	c #9DFE93",
"S@	c #9EFE95",
"T@	c #92FE8D",
"U@	c #8EFF88",
"V@	c #84FC81",
"W@	c #68AB69",
"X@	c #718071",
"Y@	c #6BBA67",
"Z@	c #8DFC85",
"`@	c #A3FE95",
" #	c #A5FE97",
".#	c #A9FF9B",
"+#	c #AAFF9D",
"@#	c #ABFF9B",
"##	c #A0FE97",
"$#	c #98FE91",
"%#	c #94FE8F",
"&#	c #94FC8D",
"*#	c #73BA6D",
"=#	c #737F72",
"-#	c #A3A3A3",
";#	c #6C816A",
">#	c #75B76E",
",#	c #A3F992",
"'#	c #ADFF9D",
")#	c #AEFF9F",
"!#	c #B1FF9F",
"~#	c #A2FF99",
"{#	c #A4F996",
"]#	c #77B770",
"^#	c #6E816C",
"/#	c #9B9B9B",
"(#	c #6D7B6A",
"_#	c #79AC6F",
":#	c #A9E893",
"<#	c #AEFA9D",
"[#	c #BFFFA6",
"}#	c #BDFFA6",
"|#	c #B8FFA4",
"1#	c #B6FFA3",
"2#	c #B4FFA1",
"3#	c #B9FFA6",
"4#	c #ACFA9D",
"5#	c #A6E895",
"6#	c #79AC71",
"7#	c #6F7B6C",
"8#	c #A0A0A0",
"9#	c #687267",
"0#	c #729568",
"a#	c #99C687",
"b#	c #B6F09F",
"c#	c #BFF7A6",
"d#	c #BDFAA5",
"e#	c #BCFDA6",
"f#	c #BBFFA8",
"g#	c #BBFAA5",
"h#	c #BDF7A6",
"i#	c #B0F09F",
"j#	c #91C683",
"k#	c #73956A",
"l#	c #6A7269",
"m#	c #A2A3A2",
"n#	c #757774",
"o#	c #646E5F",
"p#	c #748868",
"q#	c #8CAB7A",
"r#	c #A2D08B",
"s#	c #B9F0A1",
"t#	c #BCF0A3",
"u#	c #9ED08B",
"v#	c #85AB76",
"w#	c #6F8865",
"x#	c #919291",
"y#	c #787A77",
"z#	c #696D66",
"A#	c #5F6659",
"B#	c #5A6655",
"C#	c #5C6756",
"D#	c #5B6756",
"E#	c #5D6659",
"F#	c #676D64",
"G#	c #8E8E8E",
"H#	c #888888",
"I#	c #D8D8D8",
"J#	c #D6D6D6",
"                    . + @ # $ % & *                     ",
"                  = - ; > , ' ) ! ~ {                   ",
"              ] ^ / ( _ : < [ } | 1 2 3 4               ",
"            5 6 7 8 9 0 a b c d e f g h i j             ",
"          k l m n o p q r s t u v w x y z A B           ",
"        C D E F G H I J I K L M N O P Q G R S T         ",
"      U V W X Y Z `  . ...+.@.#.$.%.&.*.=.-.;.>.,.      ",
"    '.).!.~.{.].^./.(._.:.<.[.}.|.1.2.3.4.5.6.7.8.9.    ",
"    0.a.b.c.d.e.f.g.h.i.j.k.l.h.h.m.n.o.p.q.r.s.t.u.    ",
"    v.w.x.y.z.A.B.C.D.E.F.G.H.I.J.K.L.M.A.N.r.O.P.Q.    ",
"    R.S.T.U.V.W.X.Y.Z.`. +`..+++@+@+#+$+%+&+*+=+-+s.;+  ",
"  >+,+'+)+!+~+{+]+^+/+(+_+:+:+<+[+[+}+|+1+2+3+4+5+6+7+  ",
"  8+9+0+a+b+c+(+d+e+f+g+h+h+i+j+k+k+l+m+n+o+p+q+r+s+t+  ",
"  u+v+w+x+y+:+z+A+B+C+D+E+E+F+G+G+H+I+J+K+K+[+L+M+N+O+  ",
"  P+Q+R+S+T+U+V+W+X+Y+Z+`+`+ @.@.@+@@@#@$@%@&@[+*@=@-@  ",
"  ;@>@,@'@)@X+!@~@{@]@^@/@^@/@/@/@^@(@_@:@<@[@}@k+|@1@  ",
"  2@3@4@W+!@5@{@/@6@6@7@8@8@9@9@7@0@a@b@c@d@e@f@g@h@i@  ",
"  j@k@l@g@5@m@n@n@o@p@q@r@r@q@q@q@p@s@9@0@t@u@v@w@x@    ",
"    y@z@A@6@7@o@q@B@C@C@D@D@C@C@B@r@E@F@G@H@7@u@I@J@    ",
"    K@L@M@N@p@r@O@C@P@Q@R@R@S@R@D@C@C@T@U@q@B@V@W@K@    ",
"      X@Y@Z@Q@Q@R@S@`@ #.#+#@#####S@Q@$#%#$#&#*#=#      ",
"      -#;#>#,#@#'#'#'#'#)#!#!#'#'#.#~#@#@#{#]#^#-#      ",
"        /#(#_#:#<#[#}#|#1#2#1#|#|#3#|#4#5#6#7#/#        ",
"          8#9#0#a#b#c#d#e#f#[#e#g#h#i#j#k#l#8#          ",
"            m#n#o#p#q#r#s#f#f#t#u#v#w#o#n#m#            ",
"                x#y#z#A#B#C#D#B#E#F#y#x#                ",
"                      /#G#H#H#G#/#                      ",
"                        I#J#J#I#                        "};
