/* XPM */
static const char * led_off_xpm[] = {
"28 28 143 2",
"  	c None",
". 	c #959595",
"+ 	c #767676",
"@ 	c #666666",
"# 	c #5E5E5E",
"$ 	c #595959",
"% 	c #7B7B7B",
"& 	c #999999",
"* 	c #787878",
"= 	c #5C5C5C",
"- 	c #6D6D6D",
"; 	c #878787",
"> 	c #9D9D9D",
", 	c #989898",
"' 	c #919191",
") 	c #818181",
"! 	c #777777",
"~ 	c #868686",
"{ 	c #525252",
"] 	c #626262",
"^ 	c #939393",
"/ 	c #CECECE",
"( 	c #F8F8F8",
"_ 	c #FFFFFF",
": 	c #FDFDFD",
"< 	c #DFDFDF",
"[ 	c #B1B1B1",
"} 	c #808080",
"| 	c #747474",
"1 	c #5B5B5B",
"2 	c #8F8F8F",
"3 	c #D5D5D5",
"4 	c #F1F1F1",
"5 	c #F7F7F7",
"6 	c #F9F9F9",
"7 	c #FAFAFA",
"8 	c #FBFBFB",
"9 	c #FCFCFC",
"0 	c #F6F6F6",
"a 	c #DDDDDD",
"b 	c #9F9F9F",
"c 	c #727272",
"d 	c #707070",
"e 	c #D0D0D0",
"f 	c #EAEAEA",
"g 	c #F0F0F0",
"h 	c #F3F3F3",
"i 	c #F4F4F4",
"j 	c #F5F5F5",
"k 	c #F2F2F2",
"l 	c #D6D6D6",
"m 	c #A2A2A2",
"n 	c #7F7F7F",
"o 	c #858585",
"p 	c #969696",
"q 	c #C0C0C0",
"r 	c #E3E3E3",
"s 	c #ECECEC",
"t 	c #EEEEEE",
"u 	c #EFEFEF",
"v 	c #E9E9E9",
"w 	c #C7C7C7",
"x 	c #9E9E9E",
"y 	c #8E8E8E",
"z 	c #979797",
"A 	c #9B9B9B",
"B 	c #B4B4B4",
"C 	c #E4E4E4",
"D 	c #E7E7E7",
"E 	c #E8E8E8",
"F 	c #EBEBEB",
"G 	c #BABABA",
"H 	c #A3A3A3",
"I 	c #AAAAAA",
"J 	c #A0A0A0",
"K 	c #ADADAD",
"L 	c #BEBEBE",
"M 	c #D3D3D3",
"N 	c #E1E1E1",
"O 	c #E2E2E2",
"P 	c #E5E5E5",
"Q 	c #E6E6E6",
"R 	c #D7D7D7",
"S 	c #C4C4C4",
"T 	c #B3B3B3",
"U 	c #A5A5A5",
"V 	c #B6B6B6",
"W 	c #C6C6C6",
"X 	c #DEDEDE",
"Y 	c #E0E0E0",
"Z 	c #C9C9C9",
"` 	c #BFBFBF",
" .	c #ABABAB",
"..	c #B9B9BA",
"+.	c #C3C3C3",
"@.	c #CBCBCB",
"#.	c #D4D4D4",
"$.	c #DBDBDB",
"%.	c #DADADA",
"&.	c #BABABB",
"*.	c #AFAEAF",
"=.	c #C0BFC0",
"-.	c #CFCFCF",
";.	c #D9D9D9",
">.	c #DCDCDC",
",.	c #D8D8D8",
"'.	c #AFAFAF",
").	c #949494",
"!.	c #C5C5C5",
"~.	c #D1D1D1",
"{.	c #929292",
"].	c #B9B9B8",
"^.	c #CACACA",
"/.	c #B9B9B9",
"(.	c #C8C8C8",
"_.	c #CDCDCD",
":.	c #C2C2C3",
"<.	c #EDEDED",
"[.	c #C3C2C3",
"}.	c #9C9C9C",
"|.	c #C5C4C4",
"1.	c #A9A9A9",
"2.	c #A6A6A6",
"3.	c #E5E6E5",
"4.	c #E6E7E6",
"5.	c #FEFEFE",
"6.	c #D2D2D2",
"7.	c #A8A8A8",
"8.	c #ACACAC",
"9.	c #BBBBBB",
"0.	c #828282",
"a.	c #A4A4A4",
"b.	c #B8B8B8",
"c.	c #7C7C7C",
"d.	c #737373",
"e.	c #6F6F6F",
"f.	c #898989",
"g.	c #6E6E6E",
"h.	c #676767",
"i.	c #686868",
"j.	c #C1C1C1",
"k.	c #AEAEAE",
"l.	c #888888",
"                    . + @ # $ @ % &                     ",
"                * = - ; & > , & ' ) ! ~                 ",
"              { ] ^ / ( _ _ _ _ : < [ } |               ",
"            1 2 3 4 ( ( ( 5 6 7 8 9 0 a b c             ",
"          d , e f g h i h j 0 j 0 5 0 k l m n           ",
"        o p q r s t t u u g k g 4 4 k h v w x y         ",
"      z A B e C D v f f E v f F F f s F v 3 G H A       ",
"    I J K L M N O r C C O r C C C P Q P C R S T H K     ",
"  L U V L W M X Y N Y Y N N Y Y < Y N O Y R Z ` V I `   ",
"  I  ...+.@.#.$.X < < X a X X < X X < a %.M @.S &. . .  ",
"  > *.=.Z -.#.;.>.a a a >.>.a X >.$.a >.,.#.-.Z =.'.b   ",
"  ).B !.-.#.l ;.%.a a X X a X < X a X >.%.R #.~.!.B z   ",
"~.{.].^.#.,.%.$.>.< Y N N O N O O N Y a >.$.;.,.@./.)./ ",
"(.' L -.,.%.X < Y C P P P Q P Q Q r r N Y < X >.e L ).(.",
"(.{.q 3 %.>.N C P E D E v v F F f D D Q Q r Y X l q . ^.",
"_.. :.$.< O Q v f <.t u u g g g 4 g t F F E C r >.[.z e ",
"3 }.|.O Q Q f t g k i j j 0 0 0 j i i 4 g t s f O !.>   ",
"  1.2.3.f s u h j ( 7 7 7 8 9 9 7 ( 7 5 j 0 0 4 4. .I   ",
"  L ).(.s j 0 5 ( : 5.5.5._ _ _ _ _ _ 9 8 9 : 0 6., L   ",
"    z 7.0 _ : 5.5._ _ _ _ _ _ _ _ _ _ _ _ _ _ 9 8.,     ",
"      ) G 5._ _ _ _ _ _ _ _ _ _ _ _ _ _ _ _ : 9.0.      ",
"      a.0.b.7 _ _ _ _ _ _ _ _ _ _ _ _ _ _ 7 b.0.a.      ",
"        A c.K v 8 _ _ _ _ _ _ _ _ _ _ 8 v K c.A         ",
"          J d.p w 4 ( 8 5._ _ 5.8 ( 4 w p d.J           ",
"            a.* e.f.8.~.4 _ _ 4 ~.8.f.e.* a.            ",
"                ^ % g.h.h.i.i.h.h.g.% ^                 ",
"                  j.k.A y l.l.y A k.j.                  ",
"                        ,.l l ,.                        "};
