/* XPM */
static const char * led_blue_xpm[] = {
"28 28 431 2",
"  	c None",
". 	c #949394",
"+ 	c #6F6F76",
"@ 	c #575764",
"# 	c #4A495C",
"$ 	c #4A4A59",
"% 	c #575766",
"& 	c #6F6F7A",
"* 	c #939297",
"= 	c #424261",
"- 	c #4A4A6F",
"; 	c #5A5B83",
"> 	c #676892",
", 	c #6A6B99",
"' 	c #6A6B95",
") 	c #696A96",
"! 	c #60618D",
"~ 	c #53547C",
"{ 	c #4C4D75",
"] 	c #393A52",
"^ 	c #30315D",
"/ 	c #59598E",
"( 	c #9B9CC4",
"_ 	c #D1D1EA",
": 	c #E7E7F8",
"< 	c #ECECF9",
"[ 	c #EEEEFB",
"} 	c #EFEEFB",
"| 	c #DBDBF0",
"1 	c #ADADD2",
"2 	c #7171A4",
"3 	c #3A3B74",
"4 	c #3A3A6F",
"5 	c #16164D",
"6 	c #3A3A7D",
"7 	c #9496C5",
"8 	c #C4C4E1",
"9 	c #D3D3EA",
"0 	c #D0D2E9",
"a 	c #CDCEE8",
"b 	c #CDD0E8",
"c 	c #CFD2EA",
"d 	c #D5D6EC",
"e 	c #DADBED",
"f 	c #DBDEEE",
"g 	c #D1D1E8",
"h 	c #A6A9D1",
"i 	c #434594",
"j 	c #171968",
"k 	c #181A67",
"l 	c #282885",
"m 	c #7575BA",
"n 	c #ADB0D8",
"o 	c #B5BBE0",
"p 	c #B9C3E2",
"q 	c #B5C0E2",
"r 	c #B3C0E2",
"s 	c #BAC4E3",
"t 	c #BBC7E4",
"u 	c #BBC5E4",
"v 	c #BFC9E6",
"w 	c #C7CFE8",
"x 	c #C8D0E7",
"y 	c #C0C5E3",
"z 	c #8B8CC8",
"A 	c #313492",
"B 	c #181873",
"C 	c #1C1E7B",
"D 	c #090F84",
"E 	c #4453AF",
"F 	c #8A9CD1",
"G 	c #A0AFDB",
"H 	c #A2B8DD",
"I 	c #A1B9DE",
"J 	c #A0B9DF",
"K 	c #A3BBE0",
"L 	c #A2BADF",
"M 	c #A5BBE0",
"N 	c #ABC0E2",
"O 	c #B0C2E3",
"P 	c #B6C4E3",
"Q 	c #5061B7",
"R 	c #0B148C",
"S 	c #1D207E",
"T 	c #32328D",
"U 	c #001492",
"V 	c #153BA8",
"W 	c #5079C3",
"X 	c #81A3D6",
"Y 	c #83A7D8",
"Z 	c #83AADA",
"` 	c #85B2DC",
" .	c #84B1DB",
"..	c #84B2DD",
"+.	c #86B3DD",
"@.	c #8AB7DD",
"#.	c #8AAFDD",
"$.	c #8BAFDC",
"%.	c #90B2DD",
"&.	c #96B6DD",
"*.	c #92B3DB",
"=.	c #5A83C7",
"-.	c #193EA8",
";.	c #001B92",
">.	c #32398F",
",.	c #6F73A4",
"'.	c #061A93",
").	c #012BA2",
"!.	c #1A5CB5",
"~.	c #488CCB",
"{.	c #6AA2D7",
"].	c #6DA4D8",
"^.	c #6CA4D9",
"/.	c #70AADB",
"(.	c #6EA6DB",
"_.	c #6CA5DB",
":.	c #6FAADC",
"<.	c #71A7DA",
"[.	c #72A8DB",
"}.	c #74A9DB",
"|.	c #73A8DA",
"1.	c #77AADA",
"2.	c #79ABDA",
"3.	c #77A2D8",
"4.	c #5087CB",
"5.	c #1B60B6",
"6.	c #003FA8",
"7.	c #062493",
"8.	c #6E72A5",
"9.	c #374B9E",
"0.	c #0141AA",
"a.	c #0250B1",
"b.	c #125FBF",
"c.	c #3B87CE",
"d.	c #5A9ED7",
"e.	c #62A2D9",
"f.	c #66A5DB",
"g.	c #65A4DA",
"h.	c #65A5DC",
"i.	c #67A7DE",
"j.	c #63A5DC",
"k.	c #64A4DB",
"l.	c #67A5DA",
"m.	c #6AA4DB",
"n.	c #64A2D7",
"o.	c #3D87CC",
"p.	c #1270BF",
"q.	c #025EB3",
"r.	c #0049AE",
"s.	c #364D9F",
"t.	c #013B9A",
"u.	c #0151B4",
"v.	c #096BBE",
"w.	c #1777C8",
"x.	c #3187D0",
"y.	c #4D94D6",
"z.	c #5BA0DA",
"A.	c #62A6DF",
"B.	c #61A5DE",
"C.	c #5CA0DF",
"D.	c #5B9FDE",
"E.	c #599EDE",
"F.	c #5DA0DE",
"G.	c #5EA3DD",
"H.	c #599DDC",
"I.	c #5B9EDC",
"J.	c #60A4DD",
"K.	c #589BD9",
"L.	c #3281CB",
"M.	c #0664BB",
"N.	c #0053BA",
"O.	c #014AAE",
"P.	c #0666BF",
"Q.	c #1576C8",
"R.	c #2881CD",
"S.	c #388DD5",
"T.	c #4495D9",
"U.	c #4F98DC",
"V.	c #539BDE",
"W.	c #559DE0",
"X.	c #549DE1",
"Y.	c #519BE0",
"Z.	c #559EE2",
"`.	c #589FE1",
" +	c #529BDF",
".+	c #579EE0",
"++	c #5098DB",
"@+	c #4390D8",
"#+	c #368AD1",
"$+	c #2980CA",
"%+	c #1D74C6",
"&+	c #106ABD",
"*+	c #75859C",
"=+	c #637794",
"-+	c #0359C4",
";+	c #1773C8",
">+	c #2781CE",
",+	c #3789D6",
"'+	c #4195DC",
")+	c #489BE1",
"!+	c #519CE2",
"~+	c #529DE3",
"{+	c #529EE5",
"]+	c #529FE7",
"^+	c #55A1E8",
"/+	c #57A2E8",
"(+	c #57A1E6",
"_+	c #549FE5",
":+	c #57A0E4",
"<+	c #4F9AE0",
"[+	c #4694DD",
"}+	c #4291DB",
"|+	c #3A8AD5",
"1+	c #2F86D0",
"2+	c #257ECA",
"3+	c #0F71CC",
"4+	c #657E96",
"5+	c #5A7393",
"6+	c #0C7AD7",
"7+	c #2A84D1",
"8+	c #378ED8",
"9+	c #4393DE",
"0+	c #4D9AE2",
"a+	c #56A2E9",
"b+	c #5BA6EC",
"c+	c #57A5EE",
"d+	c #59A7F0",
"e+	c #5FAAF0",
"f+	c #5EA9EF",
"g+	c #5CA7ED",
"h+	c #5DA7EC",
"i+	c #5AA4E9",
"j+	c #55A0E6",
"k+	c #539EE4",
"l+	c #4E9BE3",
"m+	c #4594DE",
"n+	c #3D90D6",
"o+	c #358BD4",
"p+	c #2385E0",
"q+	c #627F97",
"r+	c #5D7B94",
"s+	c #1D83DA",
"t+	c #348DD9",
"u+	c #4394E0",
"v+	c #519EE6",
"w+	c #57A3EA",
"x+	c #5BA7EE",
"y+	c #60ABF1",
"z+	c #60ADF5",
"A+	c #64B0F7",
"B+	c #66B1F7",
"C+	c #61ADF4",
"D+	c #65AFF4",
"E+	c #62ADF3",
"F+	c #5DA9F0",
"G+	c #5CA6EB",
"H+	c #59A3E8",
"I+	c #4C97DD",
"J+	c #4194DA",
"K+	c #3892E5",
"L+	c #668099",
"M+	c #667E95",
"N+	c #2B85D8",
"O+	c #4197E0",
"P+	c #4B9AE4",
"Q+	c #55A3EC",
"R+	c #5EAAF1",
"S+	c #61ACF2",
"T+	c #63AEF4",
"U+	c #67B1F6",
"V+	c #68B3F9",
"W+	c #6FB9FF",
"X+	c #71BAFF",
"Y+	c #6CB6FB",
"Z+	c #6EB7FB",
"`+	c #6AB4F9",
" @	c #69B2F6",
".@	c #67B0F4",
"+@	c #67AFF2",
"@@	c #61AAEE",
"#@	c #5BA4E8",
"$@	c #4B9DE2",
"%@	c #4297DF",
"&@	c #6D8398",
"*@	c #738696",
"=@	c #3986CE",
"-@	c #4F9EE8",
";@	c #56A3EB",
">@	c #60ACF3",
",@	c #6AB3F7",
"'@	c #6FB7FA",
")@	c #74BAFB",
"!@	c #71BDFF",
"~@	c #72BEFF",
"{@	c #79BEFF",
"]@	c #72B9FB",
"^@	c #6EB6F9",
"/@	c #6CB4F7",
"(@	c #68AFF1",
"_@	c #62AAED",
":@	c #60A8EB",
"<@	c #4B92D4",
"[@	c #778998",
"}@	c #84909B",
"|@	c #4084BD",
"1@	c #5DABF4",
"2@	c #71B8FA",
"3@	c #7DC3FF",
"4@	c #81C5FF",
"5@	c #81C8FF",
"6@	c #83C6FF",
"7@	c #7FC1FF",
"8@	c #7DC0FF",
"9@	c #78BCFB",
"0@	c #75BAFA",
"a@	c #70B6F7",
"b@	c #6CB2F3",
"c@	c #6AB0F1",
"d@	c #6BB4F8",
"e@	c #4D8CC2",
"f@	c #85919C",
"g@	c #9DA1A6",
"h@	c #5C85A7",
"i@	c #62ABEF",
"j@	c #7BBFFF",
"k@	c #7FC4FF",
"l@	c #83C9FF",
"m@	c #83CBFF",
"n@	c #83CEFF",
"o@	c #84D2FF",
"p@	c #7ABDFB",
"q@	c #76BAF9",
"r@	c #72B7F7",
"s@	c #6EB3F3",
"t@	c #658BAC",
"u@	c #728493",
"v@	c #5D97CE",
"w@	c #71B7F8",
"x@	c #89CFFC",
"y@	c #8BD6FC",
"z@	c #8DCEFC",
"A@	c #89CAFC",
"B@	c #83C3FF",
"C@	c #679ED2",
"D@	c #768795",
"E@	c #8C9095",
"F@	c #5E87A9",
"G@	c #77BBFA",
"H@	c #8DD4FC",
"I@	c #8FD4FC",
"J@	c #91D5FC",
"K@	c #93D8FC",
"L@	c #8BCEFC",
"M@	c #84CFFF",
"N@	c #7FC5FA",
"O@	c #668AA9",
"P@	c #6F777E",
"Q@	c #6598B8",
"R@	c #83C9FA",
"S@	c #95DBFC",
"T@	c #9BDCFF",
"U@	c #9DDDFF",
"V@	c #9BDFFF",
"W@	c #95D7FC",
"X@	c #8FCFFC",
"Y@	c #8BCCFA",
"Z@	c #6B9EB8",
"`@	c #70787D",
" #	c #A3A3A3",
".#	c #68787F",
"+#	c #6C9AB5",
"@#	c #90DBF7",
"##	c #9DDFFF",
"$#	c #9FE0FF",
"%#	c #9FE2FF",
"&#	c #99D9FF",
"*#	c #94D8F7",
"=#	c #6E9BB5",
"-#	c #6A787F",
";#	c #9B9B9B",
">#	c #687479",
",#	c #6D98AA",
"'#	c #91D3E6",
")#	c #9BDDF8",
"!#	c #A3EEFF",
"~#	c #A3ECFF",
"{#	c #A3E8FF",
"]#	c #A1E7FF",
"^#	c #A3EAFF",
"/#	c #9BDBF8",
"(#	c #93D2E6",
"_#	c #6F97AA",
":#	c #6A7579",
"<#	c #A0A0A0",
"[#	c #656C70",
"}#	c #668993",
"|#	c #85BAC4",
"1#	c #9DE2EE",
"2#	c #A4EBF5",
"3#	c #A3E7F8",
"4#	c #A4E8FB",
"5#	c #A4E8FF",
"6#	c #A3E5F8",
"7#	c #A4E9F5",
"8#	c #9DDCEE",
"9#	c #81B3C4",
"0#	c #688893",
"a#	c #676C70",
"b#	c #A0A0A1",
"c#	c #727475",
"d#	c #5D6A6C",
"e#	c #688388",
"f#	c #78A5A9",
"g#	c #89C7CE",
"h#	c #9FE0EE",
"i#	c #A1E6EE",
"j#	c #89C0CE",
"k#	c #74A0A9",
"l#	c #648085",
"m#	c #8F8F90",
"n#	c #757778",
"o#	c #646A6B",
"p#	c #576364",
"q#	c #536164",
"r#	c #546265",
"s#	c #576264",
"t#	c #626A6B",
"u#	c #8E8E8E",
"v#	c #888888",
"w#	c #D8D8D8",
"x#	c #D6D6D6",
"                    . + @ # $ % & *                     ",
"                  = - ; > , ' ) ! ~ {                   ",
"              ] ^ / ( _ : < [ } | 1 2 3 4               ",
"            5 6 7 8 9 0 a b c d e f g h i j             ",
"          k l m n o p q r s t u v w x y z A B           ",
"        C D E F G H I I I J K L M N O P G Q R S         ",
"      T U V W X Y Z ` `  ...+.@.#.$.%.&.*.=.-.;.>.      ",
"    ,.'.).!.~.{.].^./.(._.:.<.[.}.|.1.2.3.4.5.6.7.8.    ",
"    9.0.a.b.c.d.e.f.g.h.i.j.k.g.g.l.m._.n.o.p.q.r.s.    ",
"    t.u.v.w.x.y.z.A.B.C.D.E.F.G.H.I.J.K.y.L.p.M.N.t.    ",
"    O.P.Q.R.S.T.U.V.W.X.Y.X.Z.`. + +.+++@+#+$+%+&+q.*+  ",
"  =+-+;+>+,+'+)+!+~+{+]+^+/+/+(+_+_+:+<+[+}+|+1+2+3+4+  ",
"  5+6+7+8+9+0+]+a+b+c+d+e+e+f+g+h+h+i+j+k+l+m+n+o+p+q+  ",
"  r+s+t+u+v+/+w+x+y+z+A+B+B+C+D+D+E+F+G+H+H+_+I+J+K+L+  ",
"  M+N+O+P+Q+R+S+T+U+V+W+X+X+Y+Z+Z+`+ @.@+@@@#@_+$@%@&@  ",
"  *@=@-@;@>@U+,@'@)@!@~@{@~@{@{@{@~@]@^@/@(@_@:@h+<@[@  ",
"  }@|@1@T+,@2@)@{@3@3@4@5@5@6@6@4@7@8@9@0@a@b@c@d@e@f@  ",
"  g@h@i@d@2@j@k@k@l@m@n@o@o@n@n@n@m@l@6@7@p@q@r@s@t@    ",
"    u@v@w@3@4@l@n@x@y@y@z@z@y@y@x@o@A@m@B@B@4@q@C@D@    ",
"    E@F@G@m@m@o@o@y@H@I@J@J@K@J@z@y@y@L@M@n@x@N@O@E@    ",
"      P@Q@R@I@I@J@K@K@S@T@U@V@W@W@K@I@X@z@X@Y@Z@`@      ",
"       #.#+#@#V@########$#%#%#####T@&#V@V@*#=#-# #      ",
"        ;#>#,#'#)#!#~#{#{#]#{#{#{#^#{#/#(#_#:#;#        ",
"          <#[#}#|#1#2#3#4#5#!#4#6#7#8#9#0#a#<#          ",
"            b#c#d#e#f#g#h#5#5#i#j#k#l#d#c#b#            ",
"                m#n#o#p#q#r#r#q#s#t#n#m#                ",
"                      ;#u#v#v#u#;#                      ",
"                        w#x#x#w#                        "};
