/* XPM */
static const char * remove_xpm[] = {
"32 32 177 2",
"  	c None",
". 	c #FFB6B5",
"+ 	c #FFB2B1",
"@ 	c #FFAEAE",
"# 	c #FFABAA",
"$ 	c #FFA7A6",
"% 	c #FFA3A2",
"& 	c #FF9F9E",
"* 	c #FF9C9A",
"= 	c #FF9896",
"- 	c #FF9492",
"; 	c #FF908E",
"> 	c #FF8D8A",
", 	c #FF8986",
"' 	c #FF8582",
") 	c #FF827F",
"! 	c #FF7E7B",
"~ 	c #FF7A77",
"{ 	c #FF7673",
"] 	c #FF736F",
"^ 	c #FF6F6B",
"/ 	c #FF6B67",
"( 	c #FF6863",
"_ 	c #FF645F",
": 	c #FF605B",
"< 	c #FF5C57",
"[ 	c #FF5953",
"} 	c #FF554F",
"| 	c #FF514C",
"1 	c #FFAFAE",
"2 	c #FFA8A6",
"3 	c #FFA4A3",
"4 	c #FFA09F",
"5 	c #FF9C9B",
"6 	c #FF9997",
"7 	c #FF9593",
"8 	c #FF918F",
"9 	c #FF8E8B",
"0 	c #FF8A87",
"a 	c #FF8683",
"b 	c #FF7F7B",
"c 	c #FF7B77",
"d 	c #FF7774",
"e 	c #FF7370",
"f 	c #FF706C",
"g 	c #FF6C68",
"h 	c #FF6864",
"i 	c #FF6560",
"j 	c #FF615C",
"k 	c #FF5D58",
"l 	c #FF5954",
"m 	c #FF5650",
"n 	c #FF524C",
"o 	c #FF4E48",
"p 	c #FF4A44",
"q 	c #FFA8A7",
"r 	c #FFA5A3",
"s 	c #FFA19F",
"t 	c #FF9D9B",
"u 	c #FF9998",
"v 	c #FF9694",
"w 	c #FF9290",
"x 	c #FF8E8C",
"y 	c #FF8A88",
"z 	c #FF8784",
"A 	c #FF8380",
"B 	c #FF7F7C",
"C 	c #FF7C78",
"D 	c #FF7874",
"E 	c #FF7470",
"F 	c #FF6D69",
"G 	c #FF6965",
"H 	c #FF6561",
"I 	c #FF625D",
"J 	c #FF5E59",
"K 	c #FF5A55",
"L 	c #FF5651",
"M 	c #FF534D",
"N 	c #FF4F49",
"O 	c #FF4B45",
"P 	c #FF4741",
"Q 	c #FF443D",
"R 	c #FFA2A0",
"S 	c #FF9E9C",
"T 	c #FF9A98",
"U 	c #FF9390",
"V 	c #FF8F8D",
"W 	c #FF8B89",
"X 	c #FF8785",
"Y 	c #FF8481",
"Z 	c #FF807D",
"` 	c #FF7C79",
" .	c #FF7975",
"..	c #FF7571",
"+.	c #FF716D",
"@.	c #FF6A65",
"#.	c #FF6661",
"$.	c #FF625E",
"%.	c #FF5E5A",
"&.	c #FF5B56",
"*.	c #FF5752",
"=.	c #FF534E",
"-.	c #FF4F4A",
";.	c #FF4C46",
">.	c #FF4842",
",.	c #FF443E",
"'.	c #FF413A",
").	c #FF3D36",
"!.	c #FF9B99",
"~.	c #FF9795",
"{.	c #FF9391",
"].	c #FF908D",
"^.	c #FF8C89",
"/.	c #FF8885",
"(.	c #FF817E",
"_.	c #FF7D7A",
":.	c #FF7976",
"<.	c #FF7672",
"[.	c #FF726E",
"}.	c #FF6E6A",
"|.	c #FF6A66",
"1.	c #FF6762",
"2.	c #FF635E",
"3.	c #FF5F5A",
"4.	c #FF5852",
"5.	c #FF544F",
"6.	c #FF504B",
"7.	c #FF4C47",
"8.	c #FF4943",
"9.	c #FF453F",
"0.	c #FF413B",
"a.	c #FF3E37",
"b.	c #FF3A33",
"c.	c #FF362F",
"d.	c #FF827E",
"e.	c #FF7E7A",
"f.	c #FF7A76",
"g.	c #FF6763",
"h.	c #FF5853",
"i.	c #FF514B",
"j.	c #FF4D48",
"k.	c #FF4640",
"l.	c #FF423C",
"m.	c #FF3E38",
"n.	c #FF3B34",
"o.	c #FF3730",
"p.	c #FF332C",
"q.	c #FF2F28",
"r.	c #FF7773",
"s.	c #FF6460",
"t.	c #FF433D",
"u.	c #FF3F39",
"v.	c #FF3B35",
"w.	c #FF3831",
"x.	c #FF342D",
"y.	c #FF3029",
"z.	c #FF2C25",
"A.	c #FF2921",
"B.	c #FF403A",
"C.	c #FF3C36",
"D.	c #FF3832",
"E.	c #FF352E",
"F.	c #FF312A",
"G.	c #FF2D26",
"H.	c #FF2922",
"I.	c #FF261E",
"J.	c #FF221A",
"K.	c #FF6E69",
"L.	c #FF504A",
"M.	c #FF3932",
"N.	c #FF322B",
"O.	c #FF2E27",
"P.	c #FF2A23",
"Q.	c #FF271F",
"R.	c #FF231B",
"S.	c #FF1F17",
"T.	c #FF1B13",
"                                                                ",
"                                                                ",
"                                                                ",
"                                                                ",
"                                                                ",
"                                                                ",
"                                                                ",
"                                                                ",
"                                                                ",
"                                                                ",
"                                                                ",
"                                                                ",
"  . + @ # $ % & * = - ; > , ' ) ! ~ { ] ^ / ( _ : < [ } |       ",
"  1 # 2 3 4 5 6 7 8 9 0 a ) b c d e f g h i j k l m n o p       ",
"  q r s t u v w x y z A B C D E f F G H I J K L M N O P Q       ",
"  R S T v U V W X Y Z `  ...+.F @.#.$.%.&.*.=.-.;.>.,.'.).      ",
"  !.~.{.].^./.Y (._.:.<.[.}.|.1.2.3.&.4.5.6.7.8.9.0.a.b.c.      ",
"  - ; > , ' d.e.f.{ ] ^ / g._ : < h.} i.j.p k.l.m.n.o.p.q.      ",
"  9 0 a ) b c r.e f g h s.j k l m n o p P t.u.v.w.x.y.z.A.      ",
"  z A B C D E f F G H I J K L M N O P Q B.C.D.E.F.G.H.I.J.      ",
"  Z `  ...+.K.@.#.$.3.&.*.=.L.;.>.,.'.).M.c.N.O.P.Q.R.S.T.      ",
"                                                                ",
"                                                                ",
"                                                                ",
"                                                                ",
"                                                                ",
"                                                                ",
"                                                                ",
"                                                                ",
"                                                                ",
"                                                                ",
"                                                                "};
