/* XPM */
static const char * replace_xpm[] = {
"32 32 114 2",
"  	c None",
". 	c #5764FF",
"+ 	c #5360FF",
"@ 	c #4F5CFF",
"# 	c #AEB1FF",
"$ 	c #AAAEFF",
"% 	c #A5AAFF",
"& 	c #A1A6FF",
"* 	c #9CA2FF",
"= 	c #989EFF",
"- 	c #949AFF",
"; 	c #8F96FF",
"> 	c #8B92FF",
", 	c #878EFF",
"' 	c #838BFF",
") 	c #7E87FF",
"! 	c #7A83FF",
"~ 	c #767FFF",
"{ 	c #717BFF",
"] 	c #6D77FF",
"^ 	c #6973FF",
"/ 	c #646FFF",
"( 	c #606CFF",
"_ 	c #5C68FF",
": 	c #4E5CFF",
"< 	c #4A58FF",
"[ 	c #4654FF",
"} 	c #A9ADFF",
"| 	c #828BFF",
"1 	c #757FFF",
"2 	c #6873FF",
"3 	c #5B68FF",
"4 	c #4150FF",
"5 	c #3D4CFF",
"6 	c #A5A9FF",
"7 	c #A1A5FF",
"8 	c #939AFF",
"9 	c #868EFF",
"0 	c #828AFF",
"a 	c #7E86FF",
"b 	c #7983FF",
"c 	c #606BFF",
"d 	c #5B67FF",
"e 	c #4554FF",
"f 	c #3848FF",
"g 	c #3444FF",
"h 	c #A0A5FF",
"i 	c #9CA1FF",
"j 	c #7982FF",
"k 	c #6C77FF",
"l 	c #5F6BFF",
"m 	c #5763FF",
"n 	c #5260FF",
"o 	c #3040FF",
"p 	c #989DFF",
"q 	c #8A92FF",
"r 	c #7D86FF",
"s 	c #757EFF",
"t 	c #525FFF",
"u 	c #3C4CFF",
"v 	c #2F40FF",
"w 	c #979DFF",
"x 	c #9399FF",
"y 	c #707AFF",
"z 	c #636FFF",
"A 	c #5663FF",
"B 	c #4E5BFF",
"C 	c #4957FF",
"D 	c #3344FF",
"E 	c #A2A7FF",
"F 	c #9EA3FF",
"G 	c #9DA3FF",
"H 	c #999FFF",
"I 	c #959BFF",
"J 	c #9097FF",
"K 	c #8C93FF",
"L 	c #888FFF",
"M 	c #7F87FF",
"N 	c #7B84FF",
"O 	c #7680FF",
"P 	c #727CFF",
"Q 	c #6E78FF",
"R 	c #6974FF",
"S 	c #6570FF",
"T 	c #616CFF",
"U 	c #5865FF",
"V 	c #5461FF",
"W 	c #4F5DFF",
"X 	c #4B59FF",
"Y 	c #4755FF",
"Z 	c #4251FF",
"` 	c #3E4DFF",
" .	c #3A49FF",
"..	c #A2A6FF",
"+.	c #9DA2FF",
"@.	c #878FFF",
"#.	c #5460FF",
"$.	c #4655FF",
"%.	c #3949FF",
"&.	c #3545FF",
"*.	c #999EFF",
"=.	c #949BFF",
"-.	c #6D78FF",
";.	c #5864FF",
">.	c #3141FF",
",.	c #3D4DFF",
"'.	c #3041FF",
").	c #2C3DFF",
"!.	c #9096FF",
"~.	c #6470FF",
"{.	c #2839FF",
"].	c #3445FF",
"^.	c #2739FF",
"/.	c #2335FF",
"                                                                ",
"                                                                ",
"                                              .                 ",
"                                              + @               ",
"  # $ % & * = - ; > , ' ) ! ~ { ] ^ / ( _ . + : < [             ",
"  } % & * = - ; > , | ) ! 1 { ] 2 / ( 3 . + : < [ 4 5           ",
"  6 7 * = 8 ; > 9 0 a b 1 { ] 2 / c d . + : < e 4 5 f g         ",
"  h i = 8 ; > 9 0 a j 1 { k 2 / l d m n : < e 4 5 f g o         ",
"  i p 8 ; q 9 0 r j s { k 2 / l d m t : < e 4 u f g v           ",
"  w x ; q 9 0 r j s y k 2 z l d A t B C e 4 u f g v             ",
"                                              D v               ",
"                                              v                 ",
"                                                                ",
"                                                                ",
"                                                                ",
"                                                                ",
"                                                                ",
"                                                                ",
"            E                                                   ",
"          E F                                                   ",
"        E G H I J K L ' M N O P Q R S T _ U V W X Y Z `  .      ",
"      ..+.H I J K @.' M N O P Q R S ( _ U #.W X $.Z ` %.&.      ",
"    & +.*.=.J K @.' M ! ~ P -.R S ( _ ;.+ W X $.Z ` %.&.>.      ",
"    +.*.- J K @.' ) ! ~ { -.R S ( _ ;.+ @ X $.Z ,.%.&.'.).      ",
"      - !.> @.' ) ! ~ { ] R ~.( _ . + @ < $.Z ,.%.&.'.).{.      ",
"        > @.| ) ! 1 { ] 2 ~.( _ . + : < [ 4 ,.%.].'.).^./.      ",
"          0 )                                                   ",
"            b                                                   ",
"                                                                ",
"                                                                ",
"                                                                ",
"                                                                "};
